<svg width="26" height="25" viewBox="0 0 26 25" fill="none" xmlns="http://www.w3.org/2000/svg">
<path d="M12.744 0C19.7915 0 25.488 5.59869 25.488 12.4971C25.488 19.408 19.7915 24.9941 12.744 24.9941C5.70932 24.9941 0 19.408 0 12.4971C0 5.59869 5.70932 0 12.744 0ZM12.298 6.16106C11.7755 6.16106 11.3422 6.57346 11.3422 7.09834V13.4094C11.3422 13.7343 11.5206 14.0342 11.8137 14.2092L16.8094 17.1335C16.9623 17.221 17.128 17.271 17.3064 17.271C17.625 17.271 17.9436 17.1085 18.122 16.8086C18.3896 16.3712 18.2494 15.7963 17.7907 15.5214L13.2538 12.872V7.09834C13.2538 6.57346 12.8205 6.16106 12.298 6.16106Z" fill="none"/>
</svg>
