<svg width="55" height="55" viewBox="0 0 55 55" fill="none" xmlns="http://www.w3.org/2000/svg">
<g clip-path="url(#clip0_11:717)">
<path d="M51.755 7.19772C50.4379 7.19772 49.3663 8.26923 49.3663 9.58641C49.3663 10.0895 49.523 10.5564 49.7897 10.9419L46.1458 15.5364C45.6852 15.2771 45.1543 15.1284 44.589 15.1284C42.8329 15.1284 41.4041 16.5571 41.4041 18.3133C41.4041 18.4807 41.4173 18.6452 41.4423 18.8057L29.4632 23.0968C28.7364 22.1269 27.5782 21.4982 26.2757 21.4982C25.8483 21.4982 25.4367 21.5667 25.0505 21.692L19.6873 11.6806C20.1941 11.1163 20.5031 10.3711 20.5031 9.55477C20.5031 9.41347 20.4929 9.2745 20.4749 9.13797L28.0881 4.98536C28.5255 5.46862 29.1572 5.77268 29.8588 5.77268C31.1758 5.77268 32.2475 4.70116 32.2475 3.38398C32.2475 2.0668 31.1758 0.995289 29.8588 0.995289C28.5417 0.995289 27.4701 2.0668 27.4701 3.38398C27.4701 3.42517 27.4711 3.46605 27.4732 3.50681L19.8715 7.65316C19.2901 6.87476 18.3619 6.36985 17.318 6.36985C16.3538 6.36985 15.489 6.80109 14.9046 7.48011L4.69691 3.00307C4.74915 2.80687 4.77739 2.60102 4.77739 2.38869C4.77739 1.07151 3.70577 0 2.38869 0C1.07162 0 0 1.07151 0 2.38869C0 3.70587 1.07162 4.77739 2.38869 4.77739C2.90316 4.77739 3.37984 4.61336 3.77021 4.33553L14.1989 8.90951C14.1558 9.11791 14.1331 9.33374 14.1331 9.55477C14.1331 11.3109 15.5619 12.7397 17.318 12.7397C17.6809 12.7397 18.0294 12.6778 18.3546 12.5656L23.6647 22.4778C22.826 23.2082 22.2945 24.2826 22.2945 25.4795C22.2945 25.8166 22.3369 26.1439 22.4161 26.4567L7.48616 35.0414C6.9236 34.5421 6.18417 34.2379 5.37456 34.2379C3.61839 34.2379 2.18964 35.6667 2.18964 37.4229C2.18964 39.179 3.61839 40.6078 5.37456 40.6078C5.67394 40.6078 5.96335 40.5654 6.2382 40.4878L13.0184 49.2836C12.7159 49.7706 12.5406 50.3445 12.5406 50.9588C12.5406 52.715 13.9694 54.1437 15.7256 54.1437C17.4817 54.1437 18.9105 52.715 18.9105 50.9588C18.9105 50.8511 18.905 50.7448 18.8945 50.6399L29.761 46.4744C30.1937 46.908 30.7916 47.1767 31.4511 47.1767C32.7682 47.1767 33.8398 46.1052 33.8398 44.788C33.8398 43.4708 32.7682 42.3993 31.4511 42.3993C30.1341 42.3993 29.0624 43.4708 29.0624 44.788C29.0624 44.8704 29.0667 44.9517 29.0747 45.032L18.3422 49.1461C17.7666 48.3177 16.8087 47.7739 15.7256 47.7739C15.1634 47.7739 14.6353 47.9208 14.1764 48.1774L7.62333 39.6761C8.20139 39.0992 8.55948 38.3021 8.55948 37.4229C8.55948 37.0522 8.49515 36.6965 8.37826 36.3654L23.1126 27.8931C23.8406 28.845 24.9873 29.4606 26.2756 29.4606C28.4709 29.4606 30.2568 27.6747 30.2568 25.4794C30.2568 25.1572 30.2173 24.8442 30.1448 24.5441L42.0783 20.2694C42.4627 20.7618 42.9882 21.1383 43.5937 21.3381V32.5834C42.6669 32.9121 42.0012 33.7971 42.0012 34.8351C42.0012 36.1523 43.0728 37.2238 44.3899 37.2238C45.707 37.2238 46.7786 36.1523 46.7786 34.8351C46.7786 33.7971 46.1128 32.9121 45.1861 32.5834V21.4412C46.6578 21.1608 47.7739 19.8653 47.7739 18.3133C47.7739 17.7015 47.6001 17.1297 47.2998 16.6439L51.0801 11.8774C51.2943 11.9406 51.5206 11.9751 51.755 11.9751C53.0721 11.9751 54.1437 10.9036 54.1437 9.58641C54.1437 8.26923 53.0721 7.19772 51.755 7.19772ZM29.8587 2.58775C30.2978 2.58775 30.6549 2.94489 30.6549 3.38398C30.6549 3.82308 30.2978 4.18021 29.8587 4.18021C29.4196 4.18021 29.0624 3.82308 29.0624 3.38398C29.0624 2.94489 29.4196 2.58775 29.8587 2.58775ZM2.38869 3.18492C1.9496 3.18492 1.59246 2.82779 1.59246 2.38869C1.59246 1.9496 1.9496 1.59246 2.38869 1.59246C2.82779 1.59246 3.18492 1.9496 3.18492 2.38869C3.18492 2.82779 2.82779 3.18492 2.38869 3.18492ZM15.7256 9.55477C15.7256 8.67669 16.4399 7.96231 17.318 7.96231C18.1961 7.96231 18.9105 8.67669 18.9105 9.55477C18.9105 10.4329 18.1961 11.1472 17.318 11.1472C16.4399 11.1472 15.7256 10.4329 15.7256 9.55477ZM31.4511 43.9918C31.8902 43.9918 32.2474 44.3489 32.2474 44.788C32.2474 45.2271 31.8902 45.5842 31.4511 45.5842C31.012 45.5842 30.6549 45.2271 30.6549 44.788C30.6549 44.3489 31.012 43.9918 31.4511 43.9918ZM15.7256 49.3663C16.6036 49.3663 17.318 50.0807 17.318 50.9588C17.318 51.8369 16.6036 52.5513 15.7256 52.5513C14.8475 52.5513 14.1331 51.8369 14.1331 50.9588C14.1331 50.0807 14.8475 49.3663 15.7256 49.3663ZM3.7821 37.4229C3.7821 36.5448 4.49648 35.8304 5.37456 35.8304C6.25264 35.8304 6.96702 36.5448 6.96702 37.4229C6.96702 38.3009 6.25264 39.0153 5.37456 39.0153C4.49648 39.0153 3.7821 38.3009 3.7821 37.4229ZM26.2756 27.8681C24.9586 27.8681 23.8869 26.7966 23.8869 25.4794C23.8869 24.1622 24.9586 23.0907 26.2756 23.0907C27.5927 23.0907 28.6643 24.1622 28.6643 25.4794C28.6643 26.7966 27.5927 27.8681 26.2756 27.8681ZM44.3899 35.6313C43.9508 35.6313 43.5937 35.2742 43.5937 34.8351C43.5937 34.396 43.9508 34.0389 44.3899 34.0389C44.829 34.0389 45.1861 34.396 45.1861 34.8351C45.1861 35.2742 44.829 35.6313 44.3899 35.6313ZM44.5889 19.9058C43.7109 19.9058 42.9965 19.1914 42.9965 18.3133C42.9965 17.4352 43.7109 16.7209 44.5889 16.7209C45.467 16.7209 46.1814 17.4352 46.1814 18.3133C46.1814 19.1914 45.467 19.9058 44.5889 19.9058ZM51.755 10.3826C51.3159 10.3826 50.9588 10.0255 50.9588 9.58641C50.9588 9.14731 51.3159 8.79018 51.755 8.79018C52.1941 8.79018 52.5513 9.14731 52.5513 9.58641C52.5513 10.0255 52.1941 10.3826 51.755 10.3826Z" fill="#F7B614"/>
</g>
<defs>
<clipPath id="clip0_11:717">
<rect width="54.1437" height="54.1437" fill="white"/>
</clipPath>
</defs>
</svg>
