<svg width="66" height="60" viewBox="0 0 66 60" fill="none" xmlns="http://www.w3.org/2000/svg">
<path d="M34.8441 30.619C35.7209 30.2808 36.3596 29.4791 36.3596 28.0763C36.3596 26.0346 34.9945 25.3958 33.2784 25.3958H30.6856C30.3222 25.3958 30.084 25.6712 30.084 25.9844V33.9507C30.084 34.3518 30.5729 34.552 31.0612 34.552C31.5497 34.552 32.0382 34.3518 32.0382 33.9507V30.9321H32.8649L34.5809 34.264C34.7188 34.5268 34.9566 34.627 35.2071 34.627C35.7833 34.627 36.4344 34.1009 36.4344 33.6126C36.4344 33.5498 36.4219 33.4623 36.3721 33.3869L34.8441 30.619ZM33.2784 29.4291H32.0384V27.0993H33.2784C33.9797 27.0993 34.4058 27.3873 34.4058 28.2641C34.4058 29.141 33.9797 29.4291 33.2784 29.4291Z" fill="#F7B614"/>
<path d="M25.429 25.3958H22.8362C22.3977 25.3958 22.1099 25.6712 22.1099 25.9844V33.9507C22.1099 34.3518 22.5982 34.552 23.0867 34.552C23.5752 34.552 24.0636 34.3518 24.0636 33.9507V31.2453H25.3037C27.0322 31.2453 28.3851 30.4436 28.3851 28.3394V28.2764C28.3851 26.1725 27.0825 25.3958 25.429 25.3958ZM26.431 28.4895C26.431 29.3412 26.0052 29.7422 25.3037 29.7422H24.0636V27.0993H25.3037C26.0052 27.0993 26.431 27.5 26.431 28.3519V28.4895Z" fill="#F7B614"/>
<path d="M55.1095 27.7262C55.1095 27.3382 55.4729 26.9747 56.362 26.9747C57.3894 26.9747 57.6272 27.4509 58.0781 27.4509C58.629 27.4509 58.8545 26.7617 58.8545 26.4236C58.8545 25.4466 57.0258 25.3215 56.362 25.3215C54.7966 25.3215 53.1556 26.0355 53.1556 27.9144C53.1556 30.8452 57.1262 30.5824 57.1262 32.0978C57.1262 32.699 56.4875 32.9244 55.9112 32.9244C54.7462 32.9244 54.3705 31.9976 53.7819 31.9976C53.306 31.9976 52.9302 32.624 52.9302 33.0499C52.9302 33.8768 54.3081 34.6781 55.9486 34.6781C57.7648 34.6781 59.0803 33.7013 59.0803 31.8977C59.0803 28.7407 55.1095 28.9789 55.1095 27.7262Z" fill="#F7B614"/>
<path d="M18.2065 29.9684L20.2856 26.6367C20.3734 26.4989 20.4109 26.3735 20.4109 26.2484C20.4109 25.7222 19.6971 25.3215 19.1457 25.3215C18.8702 25.3215 18.6825 25.4217 18.5571 25.6472L16.8911 28.5532L15.2254 25.6472C15.1 25.4217 14.9122 25.3215 14.6365 25.3215C14.0856 25.3215 13.3716 25.7222 13.3716 26.2484C13.3716 26.3735 13.4092 26.4989 13.4969 26.6367L15.576 29.9684L13.4091 33.3127C13.334 33.4378 13.2964 33.5507 13.2964 33.6634C13.2964 34.202 14.0602 34.6278 14.599 34.6278C14.7994 34.6278 14.9747 34.5653 15.0622 34.4274L16.891 31.3212L18.7198 34.4274C18.7951 34.5653 18.9828 34.6278 19.1832 34.6278C19.722 34.6278 20.4858 34.202 20.4858 33.6634C20.4858 33.5507 20.4482 33.4379 20.3731 33.3127L18.2065 29.9684Z" fill="#F7B614"/>
<path d="M11.5847 27.0994C11.9607 27.0993 12.1734 26.6986 12.1734 26.235C12.1734 25.8341 11.9981 25.3958 11.5847 25.3958H7.1257C6.69975 25.3958 6.27393 25.5962 6.27393 25.997V33.9509C6.27393 34.3519 6.69975 34.5521 7.1257 34.5521H11.5847C11.9981 34.5521 12.1734 34.1138 12.1734 33.7131C12.1734 33.2492 11.9607 32.8488 11.5847 32.8488H8.22791V30.7193H10.1068C10.5202 30.7193 10.6955 30.3184 10.6955 29.9802C10.6955 29.5792 10.4825 29.2163 10.1068 29.2163H8.22791V27.0994H11.5847Z" fill="#F7B614"/>
<path d="M47.5861 27.7262C47.5861 27.3382 47.9493 26.9747 48.8387 26.9747C49.8657 26.9747 50.1037 27.4509 50.5548 27.4509C51.1057 27.4509 51.3312 26.7617 51.3312 26.4236C51.3312 25.4466 49.5025 25.3215 48.8387 25.3215C47.2729 25.3215 45.6323 26.0355 45.6323 27.9144C45.6323 30.8452 49.6027 30.5824 49.6027 32.0978C49.6027 32.699 48.9638 32.9244 48.3878 32.9244C47.2227 32.9244 46.8471 31.9976 46.2583 31.9976C45.7821 31.9976 45.4067 32.624 45.4067 33.0499C45.4067 33.8768 46.7844 34.6781 48.4252 34.6781C50.2414 34.6781 51.5565 33.7013 51.5565 31.8977C51.5565 28.7407 47.5861 28.9789 47.5861 27.7262Z" fill="#F7B614"/>
<path d="M43.5571 27.0994C43.9328 27.0993 44.1458 26.6986 44.1458 26.235C44.1458 25.8341 43.9706 25.3958 43.5571 25.3958H39.0981C38.6722 25.3958 38.2463 25.5962 38.2463 25.997V33.9509C38.2463 34.3519 38.6722 34.5521 39.0981 34.5521H43.5571C43.9706 34.5521 44.1458 34.1138 44.1458 33.7131C44.1458 33.2492 43.9328 32.8488 43.5571 32.8488H40.2003V30.7193H42.0793C42.4926 30.7193 42.6679 30.3184 42.6679 29.9802C42.6679 29.5792 42.4549 29.2163 42.0793 29.2163H40.2003V27.0994H43.5571Z" fill="#F7B614"/>
<path d="M62.1467 17.8568H60.1139C57.8531 12.7509 54.2311 8.39531 49.5949 5.22309C44.6008 1.80617 38.7507 0 32.677 0C26.6034 0 20.7534 1.80617 15.7594 5.22309C11.1231 8.39531 7.50117 12.7509 5.24032 17.8568H3.20758C1.43894 17.8568 0 19.2957 0 21.0643V38.9353C0 40.704 1.43894 42.1429 3.20758 42.1429H5.24007C7.50091 47.2489 11.1231 51.6046 15.7591 54.7768C20.7532 58.1938 26.6033 60 32.677 60C38.7509 60 44.6011 58.1938 49.5952 54.7768C54.2314 51.6046 57.8534 47.2489 60.1142 42.1429H62.1467C63.9152 42.1429 65.3542 40.704 65.3542 38.9353V21.0643C65.3542 19.2957 63.9152 17.8568 62.1467 17.8568ZM32.677 2.55289C43.2274 2.55289 52.6918 8.49934 57.2975 17.8568H48.3001C44.5625 13.058 38.7719 10.2117 32.677 10.2117C26.5823 10.2117 20.7918 13.058 17.0543 17.8568H13.9248C18.0186 11.5175 25.0215 7.65868 32.677 7.65868C35.4091 7.65868 38.089 8.15253 40.6421 9.12659C41.3007 9.3778 42.0385 9.04758 42.2897 8.38893C42.541 7.73029 42.2107 6.99263 41.552 6.7413C38.7073 5.65606 35.7214 5.10579 32.677 5.10579C28.1137 5.10579 23.6408 6.35913 19.7418 8.73025C16.067 10.9652 13.0402 14.1101 10.9467 17.8568H8.0568C12.6623 8.49934 22.1267 2.55289 32.677 2.55289ZM44.9023 17.8568H20.452C23.6644 14.6319 28.0708 12.7646 32.6769 12.7646C37.2832 12.7646 41.6896 14.6319 44.9023 17.8568ZM32.677 57.4471C22.1268 57.4471 12.6623 51.5005 8.05655 42.1429H17.0542C20.7919 46.9421 26.5824 49.7887 32.677 49.7887C38.7718 49.7887 44.5624 46.9422 48.3001 42.143H51.4294C47.3359 48.4824 40.3326 52.3412 32.6772 52.3412C29.9445 52.3412 27.2648 51.8473 24.7125 50.8734C24.0541 50.6222 23.3163 50.9522 23.0649 51.6108C22.8135 52.2695 23.1436 53.0071 23.8023 53.2584C26.6461 54.3438 29.6321 54.8941 32.677 54.8941C37.2406 54.8941 41.7135 53.6407 45.6125 51.2696C49.2873 49.0347 52.314 45.8898 54.4075 42.143H57.2978C52.6921 51.5005 43.2276 57.4471 32.677 57.4471ZM20.4516 42.143H44.9026C41.6898 45.3682 37.2832 47.2358 32.677 47.2358C28.0711 47.2358 23.6646 45.3682 20.4516 42.143ZM62.8013 38.9353C62.8013 39.2902 62.5015 39.59 62.1467 39.59V39.5901H3.20758C2.85273 39.5901 2.55289 39.2903 2.55289 38.9354V21.0643C2.55289 20.7094 2.85273 20.4097 3.20758 20.4097C3.21013 20.4097 62.1443 20.4097 62.1467 20.4097C62.5015 20.4097 62.8013 20.7096 62.8013 21.0643V38.9353Z" fill="#F7B614"/>
<path d="M43.8273 10.6401L43.8636 10.6608C44.06 10.7705 44.2725 10.8226 44.4823 10.8226C44.9293 10.8226 45.3626 10.5858 45.5967 10.1669C45.9405 9.55153 45.7167 8.77162 45.1011 8.42788C45.0998 8.42724 45.0878 8.42022 45.0867 8.41958C44.4754 8.07022 43.7017 8.28504 43.3515 8.89582C43.0013 9.50647 43.2172 10.2887 43.8273 10.6401Z" fill="#F7B614"/>
<path d="M21.5529 49.3739C21.5313 49.361 21.5101 49.3488 21.4879 49.3363C20.8716 48.9939 20.092 49.2144 19.7496 49.8308C19.4072 50.4471 19.6269 51.2227 20.243 51.565L20.2486 51.5683C20.4531 51.6898 20.6776 51.7477 20.8996 51.7477C21.335 51.7477 21.7594 51.5247 21.998 51.1232C22.3582 50.5173 22.1588 49.7341 21.5529 49.3739Z" fill="#F7B614"/>
</svg>
