<svg width="62" height="62" viewBox="0 0 62 62" fill="none" xmlns="http://www.w3.org/2000/svg">
<g clip-path="url(#clip0_11:710)">
<path d="M37.7233 25.0479L28.4788 33.7795L24.0422 29.2151C23.5503 28.7087 22.7404 28.6972 22.2345 29.1891C21.7282 29.6814 21.7166 30.4908 22.2085 30.9972L27.5297 36.4596C28.024 36.957 28.8229 36.974 29.3378 36.4977L39.5058 26.9071C39.7528 26.6742 39.897 26.3527 39.9065 26.0136C39.916 25.6745 39.7903 25.3454 39.5569 25.099C39.0621 24.5846 38.2462 24.5621 37.7233 25.0479Z" fill="#F7B614"/>
<path d="M30.8637 11.6102C20.2985 11.6102 11.7076 20.2011 11.7076 30.7663C11.7076 41.332 20.2985 49.9228 30.8637 49.9228C41.4294 49.9228 50.0202 41.332 50.0202 30.7663C50.0202 20.2011 41.4294 11.6102 30.8637 11.6102ZM30.8637 47.3584C21.7089 47.3584 14.2721 39.9086 14.2721 30.7663C14.2721 21.624 21.7089 14.1747 30.8637 14.1747C40.0275 14.1747 47.4558 21.603 47.4558 30.7663C47.4558 39.9296 40.0275 47.3584 30.8637 47.3584Z" fill="#F7B614"/>
<path d="M57.224 23.7146L57.6472 16.111C57.6767 15.6006 57.3993 15.1213 56.942 14.8929L50.1718 11.4695L46.7484 4.69929C46.5155 4.24601 46.0392 3.97004 45.5303 3.99408L37.9136 4.40479L31.5667 0.211551C31.139 -0.0704356 30.5845 -0.0704356 30.1563 0.211551L23.8093 4.40479L16.2062 3.98156C15.6953 3.9515 15.2165 4.22898 14.9881 4.68677L11.5642 11.457L4.7945 14.8804C4.34072 15.1128 4.06524 15.5891 4.08928 16.0985L4.51201 23.7021L0.319278 30.049C0.0372915 30.4768 0.0372915 31.0312 0.319278 31.4595L4.49949 37.8189L4.07626 45.4226C4.04671 45.9329 4.32369 46.4123 4.78148 46.6407L11.5517 50.0641L14.9751 56.8342C15.2075 57.288 15.6838 57.5635 16.1932 57.5395L23.7968 57.1162L30.1437 61.309C30.569 61.6 31.1289 61.6 31.5542 61.309L37.9011 57.1162L45.5047 57.5395C46.0151 57.569 46.4939 57.2915 46.7228 56.8342L50.1462 50.0641L56.9164 46.6407C57.3697 46.4077 57.6457 45.9319 57.6216 45.4226L57.1984 37.8189L61.3911 31.472C61.6731 31.0442 61.6731 30.4893 61.3911 30.0616L57.224 23.7146ZM54.8388 36.7676C54.6826 36.997 54.6099 37.273 54.634 37.55L55.0312 44.7429L48.6331 47.974C48.3892 48.0962 48.1914 48.2945 48.0692 48.5384L44.8376 54.9365L37.6447 54.5393C37.3692 54.5293 37.0972 54.6004 36.8623 54.7441L30.8615 58.7065L24.8611 54.7441C24.6528 54.6034 24.4073 54.5273 24.1559 54.5263H24.0918L16.8984 54.9239L13.6673 48.5254C13.5451 48.2815 13.3473 48.0836 13.1028 47.9614L6.69177 44.7429L7.08946 37.55C7.09948 37.2745 7.02785 37.0025 6.8841 36.7676L2.92227 30.7668L6.8841 24.7659C7.04087 24.537 7.1135 24.2605 7.08946 23.9841L6.69177 16.7907L13.0903 13.5596C13.3342 13.4374 13.5321 13.2395 13.6543 12.9956L16.8854 6.59707L24.0788 6.99475C24.3537 7.00427 24.6257 6.93315 24.8611 6.7894L30.8615 2.82756L36.8623 6.7894C37.0917 6.94617 37.3682 7.0188 37.6447 6.99475L44.8376 6.59707L48.0692 12.9956C48.1914 13.2395 48.3892 13.4374 48.6331 13.5596L55.0312 16.7907L54.634 23.9841C54.624 24.259 54.6956 24.531 54.8388 24.7659L58.8012 30.7668L54.8388 36.7676Z" fill="#F7B614"/>
</g>
<defs>
<clipPath id="clip0_11:710">
<rect width="61.5269" height="61.5269" fill="white"/>
</clipPath>
</defs>
</svg>
