<svg width="54" height="54" viewBox="0 0 54 54" fill="none" xmlns="http://www.w3.org/2000/svg">
<g clip-path="url(#clip0_2283_5394)">
<path d="M32.6868 21.704L24.6766 29.2698L20.8322 25.3148C20.406 24.876 19.7043 24.866 19.2659 25.2922C18.8272 25.7189 18.8172 26.4202 19.2434 26.859L23.8541 31.5921C24.2825 32.0231 24.9747 32.0378 25.4209 31.6251L34.2314 23.3149C34.4454 23.1131 34.5704 22.8345 34.5786 22.5407C34.5869 22.2469 34.4779 21.9617 34.2757 21.7482C33.8469 21.3025 33.1399 21.283 32.6868 21.704Z" fill="#47934A"/>
<path d="M26.7437 10.0602C17.5889 10.0602 10.145 17.5041 10.145 26.6588C10.145 35.814 17.5889 43.2579 26.7437 43.2579C35.8988 43.2579 43.3427 35.814 43.3427 26.6588C43.3427 17.5041 35.8988 10.0602 26.7437 10.0602ZM26.7437 41.0358C18.8111 41.0358 12.3671 34.5806 12.3671 26.6588C12.3671 18.7371 18.8111 12.2823 26.7437 12.2823C34.6841 12.2823 41.1207 18.7189 41.1207 26.6588C41.1207 34.5988 34.6841 41.0358 26.7437 41.0358Z" fill="#47934A"/>
<path d="M49.5852 20.5486L49.9519 13.9601C49.9775 13.5178 49.737 13.1025 49.3408 12.9046L43.4745 9.93824L40.5081 4.07191C40.3063 3.67914 39.8936 3.44001 39.4526 3.46084L32.8528 3.81672L27.3532 0.183301C26.9826 -0.0610392 26.5022 -0.0610392 26.1311 0.183301L20.6315 3.81672L14.0434 3.44999C13.6008 3.42395 13.1859 3.66439 12.988 4.06106L10.0212 9.92739L4.15525 12.8938C3.76205 13.0951 3.52335 13.5079 3.54419 13.9492L3.91048 20.5377L0.277493 26.0373C0.0331533 26.408 0.0331533 26.8884 0.277493 27.2595L3.89963 32.7699L3.5329 39.3584C3.5073 39.8007 3.7473 40.216 4.14397 40.4139L10.0103 43.3803L12.9767 49.2466C13.178 49.6398 13.5908 49.8785 14.0321 49.8577L20.6207 49.491L26.1203 53.1239C26.4887 53.3761 26.9739 53.3761 27.3424 53.1239L32.842 49.491L39.4305 49.8577C39.8727 49.8833 40.2876 49.6429 40.486 49.2466L43.4523 43.3803L49.3187 40.4139C49.7114 40.2121 49.9506 39.7998 49.9297 39.3584L49.563 32.7699L53.196 27.2703C53.4403 26.8997 53.4403 26.4188 53.196 26.0482L49.5852 20.5486ZM47.5185 31.859C47.3831 32.0577 47.3201 32.2969 47.341 32.5369L47.6851 38.7695L42.1412 41.5692C41.9299 41.6751 41.7585 41.847 41.6526 42.0583L38.8524 47.6022L32.6198 47.258C32.3811 47.2494 32.1454 47.311 31.9419 47.4356L26.7422 50.8689L21.5429 47.4356C21.3624 47.3136 21.1497 47.2476 20.9318 47.2468H20.8763L14.6432 47.5914L11.8435 42.047C11.7376 41.8357 11.5662 41.6643 11.3544 41.5584L5.79923 38.7695L6.14383 32.5369C6.15251 32.2982 6.09044 32.0625 5.96589 31.859L2.53297 26.6593L5.96589 21.4596C6.10173 21.2612 6.16466 21.0216 6.14383 20.7821L5.79923 14.549L11.3435 11.7493C11.5549 11.6434 11.7263 11.472 11.8322 11.2606L14.6319 5.71632L20.865 6.06092C21.1033 6.06916 21.3389 6.00754 21.5429 5.88298L26.7422 2.45007L31.9419 5.88298C32.1407 6.01882 32.3802 6.08175 32.6198 6.06092L38.8524 5.71632L41.6526 11.2606C41.7585 11.472 41.9299 11.6434 42.1412 11.7493L47.6851 14.549L47.341 20.7821C47.3323 21.0203 47.3943 21.256 47.5185 21.4596L50.9518 26.6593L47.5185 31.859Z" fill="#47934A"/>
</g>
<defs>
<clipPath id="clip0_2283_5394">
<rect width="53.3128" height="53.3128" fill="white"/>
</clipPath>
</defs>
</svg>
