<svg width="62" height="62" viewBox="0 0 62 62" fill="none" xmlns="http://www.w3.org/2000/svg">
<g clip-path="url(#clip0)">
<path d="M37.7232 25.048L28.4787 33.7796L24.0421 29.2152C23.5502 28.7089 22.7403 28.6973 22.2345 29.1892C21.7281 29.6815 21.7166 30.4909 22.2084 30.9973L27.5296 36.4597C28.024 36.9571 28.8228 36.9741 29.3377 36.4978L39.5058 26.9073C39.7527 26.6744 39.8969 26.3528 39.9065 26.0137C39.916 25.6746 39.7903 25.3456 39.5569 25.0991C39.062 24.5847 38.2461 24.5622 37.7232 25.048Z" fill="#0491B2"/>
<path d="M30.8637 11.6101C20.2985 11.6101 11.7077 20.2009 11.7077 30.7662C11.7077 41.3319 20.2985 49.9227 30.8637 49.9227C41.4294 49.9227 50.0203 41.3319 50.0203 30.7662C50.0203 20.2009 41.4294 11.6101 30.8637 11.6101ZM30.8637 47.3583C21.7089 47.3583 14.2721 39.9084 14.2721 30.7662C14.2721 21.6239 21.7089 14.1745 30.8637 14.1745C40.0275 14.1745 47.4558 21.6028 47.4558 30.7662C47.4558 39.9295 40.0275 47.3583 30.8637 47.3583Z" fill="#0491B2"/>
<path d="M57.224 23.7145L57.6472 16.1109C57.6768 15.6005 57.3993 15.1212 56.942 14.8928L50.1718 11.4694L46.7484 4.69923C46.5155 4.24595 46.0392 3.96997 45.5303 3.99402L37.9137 4.40472L31.5667 0.21149C31.139 -0.0704966 30.5845 -0.0704966 30.1563 0.21149L23.8093 4.40472L16.2062 3.98149C15.6953 3.95144 15.2165 4.22892 14.9881 4.68671L11.5642 11.4569L4.79453 14.8803C4.34075 15.1127 4.06527 15.589 4.08931 16.0984L4.51204 23.702L0.319309 30.049C0.037322 30.4767 0.037322 31.0312 0.319309 31.4594L4.49952 37.8189L4.07629 45.4225C4.04674 45.9329 4.32372 46.4122 4.78151 46.6406L11.5517 50.064L14.9751 56.8342C15.2075 57.288 15.6838 57.5634 16.1932 57.5394L23.7968 57.1162L30.1438 61.3089C30.569 61.5999 31.129 61.5999 31.5542 61.3089L37.9011 57.1162L45.5048 57.5394C46.0151 57.5689 46.494 57.2915 46.7229 56.8342L50.1463 50.064L56.9165 46.6406C57.3697 46.4077 57.6457 45.9319 57.6217 45.4225L57.1984 37.8189L61.3912 31.4719C61.6732 31.0442 61.6732 30.4892 61.3912 30.0615L57.224 23.7145ZM54.8389 36.7676C54.6826 36.997 54.61 37.2729 54.634 37.5499L55.0312 44.7428L48.6332 47.9739C48.3892 48.0961 48.1914 48.2944 48.0692 48.5384L44.8376 54.9364L37.6447 54.5392C37.3692 54.5292 37.0973 54.6003 36.8624 54.7441L30.8615 58.7064L24.8611 54.7441C24.6528 54.6033 24.4074 54.5272 24.1559 54.5262H24.0918L16.8984 54.9239L13.6673 48.5253C13.5451 48.2814 13.3473 48.0836 13.1029 47.9614L6.6918 44.7428L7.08949 37.5499C7.09951 37.2744 7.02788 37.0025 6.88413 36.7676L2.9223 30.7667L6.88413 24.7659C7.0409 24.537 7.11353 24.2605 7.08949 23.984L6.6918 16.7906L13.0903 13.5595C13.3343 13.4373 13.5321 13.2395 13.6543 12.9955L16.8854 6.59701L24.0788 6.99469C24.3538 7.00421 24.6257 6.93309 24.8611 6.78934L30.8615 2.8275L36.8624 6.78934C37.0918 6.94611 37.3682 7.01873 37.6447 6.99469L44.8376 6.59701L48.0692 12.9955C48.1914 13.2395 48.3892 13.4373 48.6332 13.5595L55.0312 16.7906L54.634 23.984C54.624 24.259 54.6956 24.5309 54.8389 24.7659L58.8012 30.7667L54.8389 36.7676Z" fill="#0491B2"/>
</g>
<defs>
<clipPath id="clip0">
<rect width="61.5269" height="61.5269" fill="white"/>
</clipPath>
</defs>
</svg>
