<svg width="27" height="28" viewBox="0 0 27 28" fill="none" xmlns="http://www.w3.org/2000/svg">
<g clip-path="url(#clip0)">
<path d="M11.7503 12.2967C11.9391 12.4057 12.1634 12.4352 12.3739 12.3788C12.5844 12.3224 12.7639 12.1847 12.8729 11.9959C12.9818 11.8072 13.0114 11.5829 12.955 11.3724C12.8986 11.1619 12.7608 10.9824 12.5721 10.8734C12.3833 10.7644 12.159 10.7349 11.9485 10.7913C11.738 10.8477 11.5585 10.9854 11.4496 11.1742C11.3406 11.3629 11.3111 11.5872 11.3675 11.7977C11.4239 12.0082 11.5616 12.1877 11.7503 12.2967ZM14.4877 15.7729C14.3787 15.9617 14.1992 16.0994 13.9887 16.1558C13.7782 16.2122 13.5539 16.1827 13.3652 16.0737C13.1764 15.9648 13.0387 15.7853 12.9823 15.5748C12.9259 15.3642 12.9554 15.1399 13.0644 14.9512C13.1733 14.7625 13.3528 14.6247 13.5633 14.5683C13.7739 14.5119 13.9982 14.5415 14.1869 14.6504C14.3756 14.7594 14.5134 14.9389 14.5698 15.1494C14.6262 15.3599 14.5967 15.5842 14.4877 15.7729ZM9.28675 16.5638C9.4755 16.6727 9.69979 16.7023 9.91031 16.6459C10.1208 16.5895 10.3003 16.4517 10.4093 16.263C10.5182 16.0742 10.5478 15.8499 10.4914 15.6394C10.435 15.4289 10.2972 15.2494 10.1085 15.1405C9.91976 15.0315 9.69546 15.002 9.48494 15.0584C9.27443 15.1148 9.09494 15.2525 8.98597 15.4412C8.877 15.63 8.84747 15.8543 8.90388 16.0648C8.96029 16.2753 9.09801 16.4548 9.28675 16.5638ZM11.5046 6.14846C12.1196 5.08311 13.5324 4.65765 14.5994 5.42266C18.0731 7.9151 20.4855 11.6198 21.36 15.8048C21.6313 17.0934 20.6667 18.2169 19.4393 18.3443C17.8418 18.5112 15.4615 18.7586 14.1048 18.9014C13.9238 19.2116 13.8071 19.4137 13.6554 19.6781L13.3974 20.125C13.2924 20.3071 13.1487 20.464 12.9765 20.5846C12.8044 20.7052 12.6078 20.7865 12.4008 20.823C12.1938 20.8594 11.9813 20.85 11.7783 20.7954C11.5753 20.7409 11.3867 20.6425 11.2259 20.5071C10.7413 21.0112 9.9352 21.2109 9.21501 20.7951C8.71686 20.5075 8.45455 20.0382 8.40483 19.554L7.06868 19.6907C5.56847 19.8436 4.52357 18.2317 5.27905 16.9248L11.5041 6.14917L11.5046 6.14846ZM13.8814 6.42476C13.4726 6.13184 12.8639 6.25766 12.5713 6.76436L12.3577 7.13441C16.0059 9.45041 18.2814 13.1629 18.8892 17.1622L19.3123 17.118C19.8962 17.0566 20.2582 16.5512 20.1542 16.0575C19.3425 12.1748 17.104 8.73772 13.881 6.42547L13.8814 6.42476ZM6.34653 17.5411C6.09507 17.9766 6.4431 18.5144 6.94358 18.4627L9.08826 18.2454C9.20119 18.234 9.31506 18.2541 9.41731 18.3034C9.51956 18.3526 9.60622 18.4292 9.66774 18.5246C9.72926 18.6199 9.76325 18.7305 9.76595 18.8439C9.76865 18.9574 9.73997 19.0694 9.68307 19.1676C9.57213 19.3597 9.62637 19.6093 9.83132 19.7276C9.87797 19.7552 9.92965 19.7732 9.98333 19.7806C10.037 19.788 10.0916 19.7846 10.144 19.7707C10.1964 19.7568 10.2454 19.7326 10.2884 19.6995C10.3313 19.6664 10.3672 19.6252 10.394 19.5781L10.9084 18.6871C10.9901 18.5455 11.1248 18.4422 11.2826 18.3999C11.4405 18.3576 11.6088 18.3798 11.7503 18.4615C11.8919 18.5432 11.9952 18.6778 12.0375 18.8357C12.0798 18.9936 12.0576 19.1618 11.9759 19.3034C11.9184 19.403 11.9522 19.5269 12.0497 19.5832C12.0969 19.6104 12.1529 19.6178 12.2056 19.6037C12.2582 19.5896 12.3031 19.5552 12.3303 19.508L12.5859 19.0653C12.7783 18.7305 12.9164 18.4895 13.2012 18.0078C13.25 17.9248 13.3175 17.8544 13.3984 17.8022C13.4793 17.7501 13.5712 17.7175 13.6669 17.7073C14.5784 17.6111 16.1877 17.4433 17.6614 17.2903C17.3755 15.4422 16.6997 13.6761 15.6787 12.1093C14.6577 10.5425 13.315 9.21086 11.7398 8.2029L6.34653 17.5411Z" fill="#F3F3F3"/>
</g>
<defs>
<clipPath id="clip0">
<rect width="19.7219" height="19.7219" fill="white" transform="translate(9.86084 0.77832) rotate(30)"/>
</clipPath>
</defs>
</svg>
