<svg width="52" height="60" viewBox="0 0 52 60" fill="none" xmlns="http://www.w3.org/2000/svg">
<path d="M12.776 26.8899C13.5692 26.8899 14.33 26.5748 14.8909 26.0139C15.4517 25.4531 15.7668 24.6923 15.7668 23.8991C15.7668 23.1059 15.4517 22.3452 14.8909 21.7843C14.33 21.2234 13.5692 20.9083 12.776 20.9083C11.9828 20.9083 11.2221 21.2234 10.6612 21.7843C10.1003 22.3452 9.78521 23.1059 9.78521 23.8991C9.78521 24.6923 10.1003 25.4531 10.6612 26.0139C11.2221 26.5748 11.9828 26.8899 12.776 26.8899ZM27.7301 32.8656C27.7301 33.6588 27.415 34.4195 26.8541 34.9804C26.2932 35.5413 25.5325 35.8564 24.7393 35.8564C23.9461 35.8564 23.1854 35.5413 22.6245 34.9804C22.0636 34.4195 21.7485 33.6588 21.7485 32.8656C21.7485 32.0724 22.0636 31.3116 22.6245 30.7508C23.1854 30.1899 23.9461 29.8748 24.7393 29.8748C25.5325 29.8748 26.2932 30.1899 26.8541 30.7508C27.415 31.3116 27.7301 32.0724 27.7301 32.8656ZM12.776 44.8229C13.5692 44.8229 14.33 44.5078 14.8909 43.9469C15.4517 43.386 15.7668 42.6253 15.7668 41.8321C15.7668 41.0389 15.4517 40.2781 14.8909 39.7172C14.33 39.1563 13.5692 38.8412 12.776 38.8412C11.9828 38.8412 11.2221 39.1563 10.6612 39.7172C10.1003 40.2781 9.78521 41.0389 9.78521 41.8321C9.78521 42.6253 10.1003 43.386 10.6612 43.9469C11.2221 44.5078 11.9828 44.8229 12.776 44.8229ZM0.812746 7.95804C0.812746 3.48078 4.49146 -0.431209 9.24686 0.0383497C24.7315 1.57312 39.0773 8.86019 49.4495 20.4597C52.6496 24.0277 51.6537 29.3245 48.0169 31.9594C43.2854 35.3928 36.233 40.5041 32.2164 43.4232C32.2104 44.7302 32.2104 45.5796 32.2134 46.6892V48.5674C32.2138 49.3325 32.0465 50.0883 31.7232 50.7817C31.4 51.4751 30.9286 52.0893 30.3424 52.5808C29.7561 53.0724 29.0693 53.4295 28.3301 53.6269C27.591 53.8244 26.8175 53.8573 26.0642 53.7236C25.4541 56.194 23.2768 58.2906 20.2501 58.2906C18.1565 58.2906 16.4757 57.2886 15.4379 55.853L11.475 58.7152C7.02468 61.9274 0.797792 58.7481 0.800782 53.254L0.812746 7.96103V7.95804ZM8.80721 4.50364C6.9858 4.32419 5.29599 5.82858 5.29599 7.95804V9.51327C21.0098 10.1742 34.938 17.735 44.1318 29.2347L45.3849 28.3255C47.1136 27.0694 47.335 24.8173 46.1087 23.4505C36.4844 12.6894 23.1739 5.92956 8.80721 4.50663V4.50364ZM5.28701 53.254C5.28701 55.0844 7.36264 56.1461 8.84609 55.0724L15.2106 50.4845C15.5459 50.2433 15.9413 50.0993 16.3533 50.0685C16.7652 50.0377 17.1777 50.1212 17.5451 50.3099C17.9126 50.4986 18.2208 50.7851 18.4359 51.1378C18.6509 51.4906 18.7643 51.8958 18.7636 52.3089C18.7636 53.1164 19.3887 53.8043 20.2501 53.8043C20.4473 53.8063 20.6429 53.769 20.8256 53.6947C21.0083 53.6203 21.1743 53.5103 21.314 53.3711C21.4538 53.2319 21.5644 53.0663 21.6395 52.884C21.7146 52.7016 21.7527 52.5061 21.7515 52.3089V48.5644C21.7515 47.9695 21.9878 47.3989 22.4085 46.9783C22.8291 46.5576 23.3997 46.3213 23.9946 46.3213C24.5895 46.3213 25.16 46.5576 25.5807 46.9783C26.0014 47.3989 26.2377 47.9695 26.2377 48.5644C26.2377 48.9831 26.5697 49.3121 26.9794 49.3121C27.1777 49.3121 27.3679 49.2333 27.5081 49.0931C27.6484 48.9529 27.7271 48.7627 27.7271 48.5644V46.7041C27.7241 45.2984 27.7212 44.2875 27.7421 42.2508C27.7449 41.9005 27.8296 41.5558 27.9896 41.2441C28.1495 40.9325 28.3803 40.6627 28.6633 40.4563C31.361 38.4943 36.1283 35.0369 40.4949 31.8726C36.2307 26.5677 30.8863 22.2309 24.817 19.1503C18.7477 16.0698 12.0923 14.316 5.29299 14.0055L5.28701 53.254Z" fill="#F25A29"/>
</svg>
