<svg width="236" height="233" viewBox="0 0 236 233" fill="none" xmlns="http://www.w3.org/2000/svg">
<circle r="113.493" transform="matrix(-1 0 0 1 121.927 119.115)" fill="#0491B2"/>
<circle r="112.79" transform="matrix(-1 0 0 1 113.493 113.493)" stroke="#0491B2" stroke-width="1.40549"/>
<g clip-path="url(#clip0)">
<path d="M74.2896 69.6569L79.4547 65.1087L74.2896 60.5614C73.4864 59.8532 73.2115 58.7493 73.5887 57.7478C73.9677 56.7454 74.9037 56.0981 75.9744 56.0981H97.3486V55.1796C97.3486 54.2012 98.1417 53.4081 99.1201 53.4081C100.099 53.4081 100.892 54.2012 100.892 55.1796V79.0714L115.441 86.9717C115.521 86.3317 115.713 85.7027 116.016 85.1107L118.066 81.1085C119.474 78.3604 122.854 77.2713 125.6 78.6776L127.186 79.4891C128.517 80.1715 129.503 81.3298 129.962 82.7536C130.422 84.1765 130.299 85.6935 129.617 87.0242L127.567 91.0274C127.088 91.9616 126.381 92.7012 125.549 93.2194C126.637 94.6848 127.153 96.4867 127.685 98.3587L128.066 99.7106C128.333 100.652 127.785 101.632 126.844 101.897C126.683 101.943 126.521 101.964 126.361 101.964C125.588 101.964 124.878 101.455 124.657 100.674L124.275 99.3252C123.499 96.5872 123.022 95.1209 121.504 94.2965L118.783 92.8183L118.447 92.6467C118.336 92.5896 118.231 92.525 118.125 92.4614L98.73 81.9292C98.8527 84.3536 100.158 86.6443 102.306 87.9492L114.919 95.6125C114.934 95.6208 114.948 95.6291 114.962 95.6383L118.888 98.023C119.723 98.5312 119.99 99.6212 119.482 100.458C119.003 101.246 118.007 101.526 117.195 101.131L120.173 110.135L122.351 111.028L128.271 113.454L126.565 107.423C126.299 106.481 126.846 105.502 127.788 105.235C128.73 104.968 129.709 105.517 129.975 106.458L132.671 115.991C132.706 116.113 132.729 116.248 132.734 116.376L133.44 129.335C133.461 129.829 133.356 130.763 133.585 131.245L141.419 147.728H147.113C150.449 147.728 153.162 150.441 153.162 153.776V158.89C153.925 158.54 154.773 158.345 155.666 158.345H170.125C173.46 158.345 176.173 161.057 176.173 164.392V170.737H180.426C181.404 170.737 182.197 171.53 182.197 172.508C182.197 173.487 181.404 174.28 180.426 174.28H75.9762C74.9978 174.28 74.2047 173.487 74.2047 172.508C74.2047 171.53 74.9978 170.737 75.9762 170.737H80.5834V125.075C80.5834 121.741 83.2965 119.027 86.6311 119.027H97.3486V88.1225C95.3844 85.4602 94.6568 81.9707 95.5688 78.6545C95.7118 78.1335 96.0852 77.7056 96.5832 77.4944C96.8276 77.3902 97.0895 77.3441 97.3486 77.3543V74.1202H75.9753C74.9037 74.1202 73.9677 73.4728 73.5896 72.4713C73.2115 71.4699 73.4864 70.3651 74.2896 69.6569ZM126.59 83.8418C126.421 83.3189 126.06 82.8929 125.571 82.643L123.986 81.8314C123.687 81.6784 123.368 81.6055 123.052 81.6055C122.306 81.6055 121.583 82.014 121.22 82.7232L119.169 86.7264C118.691 87.6615 119 88.7948 119.852 89.3675L120.429 89.6801L121.647 90.3044C122.655 90.8208 123.896 90.4206 124.413 89.4117L126.464 85.4095C126.714 84.9207 126.759 84.3637 126.59 83.8418ZM130.15 148.273C130.752 147.999 131.406 147.819 132.094 147.755L130.15 145.172V148.273ZM121.738 133.999C120.886 132.978 120.651 131.786 120.461 130.825C120.413 130.596 119.539 125.821 119.539 125.821C119.539 125.821 118.712 126.337 118.625 126.374C118.565 126.4 118.523 126.459 118.516 126.528L117.553 136.325H123.49L121.738 133.999ZM111.262 124.221L112.758 136.316H113.993L114.99 126.182C115.117 124.883 115.912 123.75 117.077 123.187L118.858 122.057L117.672 115.479C117.672 115.479 112.672 121.419 112.555 121.57C111.521 122.915 111.167 123.454 111.262 124.221ZM130.398 132.795C130.04 131.718 129.874 130.621 129.901 129.506L129.258 117.688L121.064 114.33L122.554 122.58C122.558 122.602 122.563 122.625 122.566 122.647L123.798 129.468C123.958 130.175 124.098 131.246 124.539 131.828L136.51 147.728H137.497L130.398 132.795ZM172.63 164.391C172.63 163.011 171.506 161.888 170.125 161.888H155.666C154.285 161.888 153.161 163.011 153.161 164.391V170.737H172.63V164.391ZM149.619 164.391V153.776C149.619 152.395 148.494 151.271 147.113 151.271H132.654C131.273 151.271 130.15 152.395 130.15 153.776V170.737H149.618V164.391H149.619ZM84.1264 125.075V170.737H103.595V160.115C103.595 159.137 104.388 158.344 105.366 158.344C106.345 158.344 107.138 159.137 107.138 160.115V170.737H126.607V142.371C126.607 140.991 125.483 139.868 124.102 139.868H109.643C108.262 139.868 107.138 140.991 107.138 142.371V151.252C107.138 152.23 106.345 153.024 105.367 153.024C104.388 153.024 103.595 152.23 103.595 151.252V125.075C103.595 123.694 102.471 122.57 101.09 122.57H99.1386C99.133 122.57 99.1266 122.571 99.1201 122.571C99.1146 122.571 99.1081 122.57 99.1026 122.57H86.632C85.2506 122.57 84.1264 123.695 84.1264 125.075ZM101.09 119.027C104.424 119.027 107.138 121.741 107.138 125.075V136.87C107.772 136.58 108.464 136.397 109.191 136.343L107.746 124.657C107.462 122.38 108.624 120.87 109.747 119.409C109.866 119.254 116.752 111.078 116.752 111.078L112.528 98.3062L100.892 91.2367V119.027H101.09ZM97.3486 70.5763V59.642H78.6072L82.6436 63.1961C83.1932 63.6802 83.5086 64.3774 83.5086 65.1096C83.5086 65.8418 83.1932 66.539 82.6436 67.0231L78.6072 70.5772H97.3486V70.5763Z" fill="white"/>
</g>
<defs>
<clipPath id="clip0">
<rect width="120.872" height="120.872" fill="white" transform="matrix(-1 0 0 1 188.337 53.4081)"/>
</clipPath>
</defs>
</svg>
