<svg width="77" height="60" viewBox="0 0 77 60" fill="none" xmlns="http://www.w3.org/2000/svg">
<path d="M5.45424 27.2698H38.1784V32.7238H5.45424V27.2698Z" fill="#0491B2"/>
<path d="M0 13.6333H27.2701V19.0873H0V13.6333Z" fill="#0491B2"/>
<path d="M76.1354 28.9227L67.9544 9.83359C67.7444 9.34295 67.395 8.92477 66.9495 8.63098C66.5039 8.33719 65.9819 8.18073 65.4483 8.18103H57.2672V2.72701C57.2672 2.00376 56.9799 1.31014 56.4685 0.798723C55.9571 0.28731 55.2635 0 54.5402 0H10.9081V5.45402H51.8132V39.6943C50.5706 40.4159 49.4831 41.3763 48.6135 42.5202C47.7439 43.6641 47.1093 44.9688 46.7464 46.3592H29.6099C28.9462 43.7885 27.3677 41.5482 25.1703 40.0581C22.9729 38.5681 20.3076 37.9305 17.6738 38.2651C15.04 38.5996 12.6186 39.8832 10.8636 41.8753C9.10848 43.8674 8.1402 46.4312 8.1402 49.0862C8.1402 51.7411 9.10848 54.3049 10.8636 56.297C12.6186 58.2891 15.04 59.5727 17.6738 59.9073C20.3076 60.2418 22.9729 59.6043 25.1703 58.1142C27.3677 56.6241 28.9462 54.3838 29.6099 51.8132H46.7464C47.3396 54.1536 48.6963 56.2294 50.6018 57.7122C52.5073 59.1949 54.8528 60 57.2672 60C59.6817 60 62.0272 59.1949 63.9326 57.7122C65.8381 56.2294 67.1948 54.1536 67.788 51.8132H73.6293C74.3525 51.8132 75.0462 51.5259 75.5576 51.0145C76.069 50.503 76.3563 49.8094 76.3563 49.0862V29.9971C76.3564 29.6277 76.2813 29.2621 76.1354 28.9227ZM19.0891 54.5402C18.0104 54.5402 16.9559 54.2203 16.059 53.621C15.1621 53.0217 14.463 52.1699 14.0502 51.1733C13.6374 50.1767 13.5294 49.0801 13.7399 48.0221C13.9503 46.9642 14.4698 45.9923 15.2325 45.2296C15.9953 44.4668 16.9671 43.9474 18.0251 43.7369C19.083 43.5265 20.1797 43.6345 21.1763 44.0473C22.1728 44.4601 23.0247 45.1592 23.6239 46.0561C24.2232 46.953 24.5431 48.0075 24.5431 49.0862C24.5417 50.5322 23.9666 51.9186 22.9441 52.9411C21.9216 53.9637 20.5351 54.5387 19.0891 54.5402ZM57.2672 13.635H63.6484L69.4951 27.2701H57.2672V13.635ZM57.2672 54.5402C56.1885 54.5402 55.134 54.2203 54.2371 53.621C53.3402 53.0217 52.6412 52.1699 52.2284 51.1733C51.8156 50.1767 51.7076 49.0801 51.918 48.0221C52.1284 46.9642 52.6479 45.9923 53.4106 45.2296C54.1734 44.4668 55.1452 43.9474 56.2032 43.7369C57.2612 43.5265 58.3578 43.6345 59.3544 44.0473C60.351 44.4601 61.2028 45.1592 61.8021 46.0561C62.4014 46.953 62.7212 48.0075 62.7212 49.0862C62.7198 50.5322 62.1447 51.9186 61.1222 52.9411C60.0997 53.9637 58.7133 54.5387 57.2672 54.5402ZM70.9023 46.3592H67.788C67.1873 44.0233 65.8285 41.9528 63.9245 40.4722C62.0205 38.9917 59.6791 38.1848 57.2672 38.1781V32.7241H70.9023V46.3592Z" fill="#0491B2"/>
</svg>
