<svg width="48" height="60" viewBox="0 0 48 60" fill="none" xmlns="http://www.w3.org/2000/svg">
<path d="M32.0594 26.7223C32.1711 26.7603 32.2864 26.7782 32.3981 26.7782C32.8385 26.7782 33.2491 26.5017 33.3979 26.0613C33.7284 25.0918 34.7854 24.5713 35.7544 24.8995C37.8263 25.6008 40.0867 24.4889 40.7889 22.4161C40.9771 21.865 40.6813 21.2644 40.1293 21.0762C39.5749 20.8895 38.9771 21.1852 38.7894 21.7373C38.4598 22.7077 37.4028 23.2282 36.4324 22.8991C34.3642 22.201 32.101 23.3106 31.3979 25.3824C31.2111 25.9336 31.5068 26.5342 32.0594 26.7223Z" fill="#E54545"/>
<path d="M34.5573 19.3648C34.6695 19.4028 34.7844 19.4207 34.8961 19.4207C35.3364 19.4207 35.747 19.1442 35.8958 18.7038C36.0556 18.2337 36.3879 17.8538 36.8338 17.634C37.2792 17.4148 37.7827 17.3832 38.2528 17.5425C40.3242 18.2438 42.5842 17.1319 43.2873 15.0577C43.475 14.5066 43.1784 13.906 42.6272 13.7179C42.0752 13.5279 41.475 13.8268 41.2883 14.3789C40.9591 15.3503 39.904 15.8712 38.9317 15.5416C37.9265 15.2001 36.8503 15.2701 35.8999 15.7398C34.9496 16.2086 34.2383 17.0206 33.8972 18.025C33.7082 18.577 34.0048 19.1772 34.5573 19.3648Z" fill="#E54545"/>
<path d="M37.0535 12.0077C37.1661 12.0457 37.2806 12.0635 37.3936 12.0635C37.834 12.0635 38.2446 11.7866 38.3934 11.3462C38.636 10.6303 39.4188 10.2448 40.1333 10.4879C41.015 10.7868 41.9603 10.7255 42.7952 10.3149C43.6297 9.9029 44.2537 9.19153 44.5535 8.30942C44.7412 7.75828 44.4455 7.15769 43.8934 6.97001C43.3391 6.78095 42.7412 7.0785 42.5535 7.63056C42.435 7.978 42.1892 8.25907 41.8605 8.42066C41.5323 8.58179 41.1606 8.60651 40.8122 8.48704C38.994 7.87363 37.01 8.84913 36.3934 10.6664C36.2066 11.2199 36.501 11.8196 37.0535 12.0077Z" fill="#E54545"/>
<path d="M44.7023 26.644C44.5187 26.5186 44.3118 26.4467 44.1003 26.4192C46.1983 19.6013 47.3495 12.9221 47.5143 6.56012C47.5661 4.55924 46.5883 1.88774 44.6167 0.651322C43.671 0.0571456 42.1205 -0.43266 40.1082 0.602799C36.9542 2.23014 34.6988 7.01651 32.887 10.864C32.7826 11.0856 32.6801 11.3021 32.5789 11.5163C32.1784 9.67611 30.9621 8.10187 29.2327 7.28018C28.8253 5.3205 27.2707 3.78516 25.3174 3.38737C25.2964 3.27751 25.2698 3.16947 25.2373 3.06098C24.8349 1.68632 23.6219 0.651322 22.2184 0.484696C21.4278 0.390855 20.6441 0.554276 19.9749 0.946121C19.4045 0.628433 18.7646 0.459519 18.1077 0.459519C16.2716 0.459519 14.7289 1.74034 14.3265 3.4542C12.3193 4.00077 10.8471 5.84281 10.8315 7.98422C8.54134 8.57565 6.8728 10.6452 6.8728 13.1066C6.8728 13.7594 6.99548 14.4053 7.23077 15.0145C6.63659 15.7483 6.307 16.6671 6.307 17.6311C6.307 18.2097 6.42602 18.7673 6.65124 19.2823C5.59656 18.1314 4.11203 17.1907 2.44486 17.2521C1.86167 17.2709 1.40345 17.7579 1.4213 18.3406C1.43915 18.9119 1.90836 19.3637 2.47645 19.3637C2.51215 19.3651 2.54465 19.3619 2.57853 19.3619C3.56821 19.3619 4.48785 20.0165 5.1571 20.7764C3.48261 21.2593 1.46342 22.0444 0.521799 23.821C-0.0453694 24.8926 -0.111745 26.2068 0.266367 27.7129C0.0837198 28.0182 -0.0165303 28.373 0.00223799 28.7506L1.79941 54.2897C1.96329 57.4922 4.60275 59.9998 7.80846 59.9998H37.4486C40.6543 59.9998 43.2938 57.4922 43.4563 54.3089L45.2988 27.8818C45.2988 27.8758 45.3001 27.8694 45.3001 27.863C45.3294 27.376 45.1047 26.9209 44.7023 26.644ZM33.44 14.5362C33.8584 13.7562 34.3143 12.7884 34.7968 11.7635C36.3838 8.393 38.5591 3.77784 41.0755 2.47917C41.9937 2.00584 42.7847 1.99623 43.4943 2.43888C44.7179 3.20747 45.4384 5.14701 45.4031 6.50519C45.2415 12.7477 44.1013 19.3171 42.0129 26.0329C41.9443 26.2535 41.7923 26.6989 41.5758 27.3105L39.7763 28.1098C39.7374 28.1276 39.6994 28.1468 39.6623 28.1697C39.1428 28.4815 38.56 28.6353 37.9769 28.6417C37.3941 28.6353 36.8123 28.4815 36.2927 28.1697L35.5402 27.7179C34.6741 27.1984 33.7036 26.9388 32.7332 26.9388C32.7217 26.9388 32.7103 26.9406 32.6975 26.9406C31.7156 26.9342 30.7314 27.191 29.8548 27.7179L29.1031 28.1697C28.6838 28.421 28.2206 28.5437 27.7514 28.5964C27.7779 28.5048 27.8086 28.4146 27.836 28.324C28.1253 27.3412 28.4357 26.3716 28.7607 25.4099C28.8843 25.0441 29.0134 24.6811 29.142 24.319C29.4135 23.5555 29.6973 22.802 29.9912 22.0531C30.1221 21.7185 30.2498 21.3806 30.3849 21.0492C31.3063 18.803 32.3221 16.6249 33.44 14.5362ZM19.9799 17.0406C20.1031 16.8822 20.2234 16.7284 20.3379 16.5783C20.3379 16.5764 20.3388 16.5751 20.3397 16.5741C20.423 16.4634 20.4958 16.348 20.5572 16.2326C20.8172 15.7442 20.878 15.1949 20.7577 14.6584L25.165 13.6948C25.1947 13.8299 25.2263 13.964 25.2771 14.0885C25.4744 14.5719 25.8274 14.9743 26.3181 15.2553C26.4788 15.3441 26.6468 15.4325 26.8198 15.5245C26.9622 15.5996 27.105 15.6774 27.2483 15.7557C27.3169 15.7927 27.3865 15.8294 27.4552 15.8678C27.5811 15.9383 27.7024 16.0166 27.8246 16.0935C27.9294 16.158 28.0329 16.2244 28.134 16.2954C28.2512 16.3764 28.3634 16.4661 28.4751 16.5572C28.5735 16.6373 28.6673 16.7252 28.7603 16.8149C28.8605 16.9129 28.9598 17.0131 29.0519 17.123C29.2144 17.3171 29.3705 17.519 29.4982 17.7607C29.0505 18.749 28.6293 19.7574 28.2219 20.7741C28.1583 20.9316 28.091 21.0849 28.0288 21.2419C26.8715 21.5354 25.7532 22.0847 24.3721 23.0675C22.6317 24.3039 21.3363 24.6326 19.2013 24.3231L18.5604 21.3889C18.1255 19.4049 19.0685 18.2033 19.9799 17.0406ZM25.2158 10.6283C25.2433 10.6232 25.2707 10.62 25.2982 10.62C25.4978 10.62 25.6846 10.7628 25.728 10.9633C25.7619 11.1153 25.7047 11.2348 25.6667 11.2925C25.6296 11.3497 25.5463 11.4499 25.3952 11.4824L19.5624 12.7591C19.3304 12.81 19.0937 12.6557 19.0429 12.4254C18.9925 12.1943 19.1454 11.9567 19.3766 11.9059L22.4756 11.2279L25.2158 10.6283ZM21.8032 26.9599C21.7231 26.9653 21.6416 26.9672 21.5615 26.9759C20.9856 27.034 20.4175 27.1796 19.8783 27.4222L19.6764 26.4984C19.9808 26.5236 20.2839 26.5492 20.5677 26.5492C22.4093 26.5492 23.892 26.0008 25.5957 24.7887C26.1322 24.4065 26.6074 24.1172 27.0592 23.8777C26.9622 24.1533 26.866 24.4275 26.7722 24.7045C26.7045 24.9027 26.6317 25.0981 26.5662 25.2977C26.2558 26.2375 25.9601 27.1846 25.6846 28.1404L24.9823 27.7202C24.1167 27.2006 23.1463 26.9406 22.1758 26.9406C22.163 26.9406 22.1497 26.9429 22.1369 26.9429C22.0252 26.9406 21.914 26.9534 21.8032 26.9599ZM9.17351 16.0408L9.86519 15.4709L9.41658 14.6969C9.13552 14.2112 8.98675 13.6619 8.98675 13.1066C8.98675 11.3959 10.3266 10.0011 12.0373 9.92971L13.319 9.8757L13.0201 8.62738C12.9697 8.41864 12.9441 8.21264 12.9441 8.01718C12.9441 6.65717 14.0066 5.51185 15.362 5.40839L16.338 5.33423V4.28367C16.3686 3.33473 17.1509 2.57118 18.1086 2.57118C18.6597 2.57118 19.0548 2.82249 19.2882 3.03352L20.0284 3.70185L20.738 3.00102C21.063 2.68013 21.5098 2.52998 21.9703 2.58262C22.5361 2.64946 23.0469 3.09074 23.2117 3.65791C23.2676 3.84788 23.2836 4.03144 23.2616 4.21867L23.138 5.39786H24.3268C25.8443 5.39786 27.1132 6.58393 27.2181 8.09775L27.2657 8.79171L27.9212 9.02151C29.5714 9.6015 30.6572 11.1629 30.6202 12.9107C30.6041 13.6573 30.3633 14.376 29.9271 15.0063C29.2208 14.4066 28.4595 14.0024 27.8196 13.6655C27.6539 13.5776 27.4936 13.4934 27.332 13.4037C27.2863 13.378 27.2313 13.3341 27.2126 13.2229C27.1874 13.0709 27.2442 12.8882 27.3595 12.7541C27.8196 12.2199 28.0045 11.4916 27.8557 10.804L27.728 10.2222C27.6003 9.63491 27.2496 9.13366 26.7429 8.80819C26.2371 8.4841 25.6351 8.37561 25.0492 8.50424L24.7658 8.56649C24.7626 8.56741 24.7599 8.56649 24.7567 8.56741L21.6576 9.24536L18.6336 9.90545C18.0477 10.0336 17.546 10.3829 17.221 10.8906C16.8955 11.3964 16.7879 11.9993 16.9157 12.5852L16.9788 12.8722V12.8754C16.9788 12.8768 16.9802 12.8777 16.9802 12.88L17.0425 13.1661C17.1953 13.8692 17.6842 14.4616 18.3484 14.7467C18.5132 14.8172 18.6506 14.9514 18.6982 15.0878C18.7256 15.1661 18.7096 15.2059 18.6483 15.3075V15.3084C18.5439 15.449 18.4308 15.5913 18.3159 15.7383C18.1997 15.8861 18.0793 16.0413 17.9566 16.202C17.9154 16.2555 17.8765 16.3114 17.8353 16.3663C17.7474 16.4858 17.66 16.6071 17.5735 16.7339C17.5259 16.8026 17.4805 16.8735 17.4338 16.9454C17.3537 17.069 17.2764 17.1962 17.2004 17.3276C17.1564 17.4036 17.1129 17.4787 17.0708 17.5574C16.9912 17.7053 16.9198 17.8605 16.8488 18.0193C16.8181 18.0866 16.7856 18.1511 16.7582 18.2221C16.6653 18.4519 16.5829 18.6927 16.5174 18.9463C16.5069 18.9865 16.5028 19.0296 16.4931 19.0708C16.4423 19.2864 16.4011 19.5089 16.3746 19.7414C16.3645 19.8343 16.3622 19.9314 16.3558 20.0275C16.3471 20.152 16.3315 20.2706 16.3315 20.4001C16.327 20.3951 16.3229 20.3896 16.3187 20.3846C16.3041 20.3653 16.289 20.3484 16.2752 20.3296C16.0917 20.0875 15.9077 19.865 15.7232 19.6535C15.665 19.5871 15.606 19.523 15.5469 19.4594C15.3918 19.2919 15.2366 19.1344 15.08 18.9865C15.0297 18.9389 14.9789 18.8872 14.9271 18.8405C14.7298 18.6643 14.5312 18.5027 14.3316 18.359C14.2757 18.3191 14.2185 18.2853 14.1627 18.2473C14.0125 18.1466 13.8628 18.0536 13.7104 17.9717C13.6367 17.9314 13.5639 17.8925 13.4888 17.8563C13.3314 17.7794 13.173 17.714 13.0137 17.6567C12.961 17.638 12.9079 17.6123 12.8553 17.5954C12.6823 17.5405 12.5083 17.4961 12.333 17.4636C12.3128 17.4594 12.2927 17.4613 12.2726 17.4585C12.2369 17.4521 12.2021 17.4384 12.1659 17.4329C12.0432 17.415 11.927 17.4224 11.8066 17.4137C11.7223 17.4086 11.639 17.3908 11.5543 17.3908C11.5292 17.3908 11.5026 17.3972 11.4765 17.3972C11.3126 17.399 11.1543 17.4183 10.995 17.4379C10.9158 17.4485 10.8366 17.4549 10.7574 17.4695C10.5491 17.5075 10.3477 17.5606 10.1481 17.6238C10.1174 17.6334 10.0877 17.6407 10.057 17.6513C9.53148 17.8298 9.03298 18.0825 8.56652 18.3873C8.47039 18.1498 8.41958 17.8943 8.41958 17.6311C8.42095 17.0131 8.69561 16.4336 9.17351 16.0408ZM2.38947 24.8079C2.83625 23.9665 3.92069 23.3243 5.80346 22.786C6.6842 22.5347 7.50131 22.0645 8.1646 21.431C8.46535 21.1431 8.74734 20.8991 9.0197 20.6775C9.87069 19.9858 10.6045 19.6096 11.2687 19.524C11.2838 19.5221 11.2984 19.5198 11.3131 19.5189C11.5232 19.4956 11.7269 19.502 11.9247 19.5368C11.9764 19.5464 12.029 19.5642 12.0821 19.578C12.1801 19.6022 12.2771 19.6265 12.3756 19.6659C12.4387 19.6901 12.5019 19.7272 12.5664 19.7565C12.658 19.8009 12.7491 19.8412 12.8411 19.897C12.913 19.9401 12.9844 19.9964 13.0563 20.0458C13.1419 20.1058 13.2275 20.1607 13.314 20.2307C13.3941 20.2948 13.4747 20.3731 13.5548 20.4459C13.6349 20.5187 13.7154 20.5855 13.7955 20.6665C13.8843 20.7563 13.9741 20.8606 14.0638 20.9613C14.1366 21.0424 14.2094 21.1174 14.2835 21.2053C14.3838 21.3257 14.4849 21.4626 14.5861 21.5958C14.6506 21.6805 14.7143 21.7565 14.7784 21.8462C14.8937 22.0069 15.0095 22.1849 15.1258 22.3625C15.1766 22.4404 15.2283 22.5104 15.2787 22.5905C15.4467 22.8556 15.6156 23.1375 15.7854 23.4374C16.5627 24.8088 16.8204 26.8349 16.4826 28.5996C16.4263 28.5941 16.3714 28.5858 16.3155 28.5771C15.9132 28.5085 15.5259 28.3798 15.173 28.1684L14.4199 27.7165C13.5543 27.197 12.5838 26.9374 11.6134 26.9374C11.6019 26.9374 11.5905 26.9393 11.5777 26.9393C10.5958 26.9328 9.61159 27.1897 8.73498 27.7165L8.36877 27.9363C7.72973 28.3194 7.01425 28.5126 6.29831 28.519C5.58099 28.5126 4.86642 28.3203 4.22784 27.9363L2.80741 27.083C2.80741 27.083 2.80649 27.083 2.80649 27.0821C2.61927 26.9713 2.41785 26.8949 2.21094 26.8573C2.04523 26.0219 2.10428 25.3462 2.38947 24.8079ZM41.3529 54.1807C41.2462 56.2585 39.5328 57.8868 37.4527 57.8868H7.81167C5.73022 57.8868 4.01773 56.2585 3.91016 54.1606L2.15281 29.1969L3.07154 29.7485C4.06717 30.3459 5.18548 30.6398 6.30059 30.6334C7.41662 30.6398 8.53356 30.3464 9.52919 29.7485L9.89586 29.5288C10.415 29.2162 10.9972 29.0619 11.58 29.0555C12.1627 29.0619 12.7445 29.2162 13.265 29.5288L14.018 29.9806C14.9706 30.5519 16.0496 30.7968 17.1162 30.7387C17.2109 30.7346 17.3061 30.7346 17.4023 30.7263C17.4137 30.725 17.4247 30.7185 17.437 30.7176C18.158 30.6366 18.8657 30.4096 19.518 30.0379C19.5794 30.0154 19.6448 30.0145 19.7021 29.9806L20.4551 29.5288C20.9742 29.2162 21.556 29.0619 22.1392 29.0555C22.7219 29.0619 23.3037 29.2162 23.8242 29.5288L24.5772 29.9806C25.3765 30.459 26.2659 30.7071 27.1599 30.7442C27.1778 30.7451 27.197 30.7474 27.2149 30.7474C27.5229 30.757 27.8315 30.7474 28.1377 30.7039C28.313 30.6815 28.4829 30.6375 28.655 30.5982C28.7383 30.5785 28.8221 30.5602 28.9045 30.5359C29.3732 30.4064 29.8323 30.2361 30.2599 29.9797L31.0129 29.5274C31.5325 29.2153 32.1143 29.061 32.697 29.0546C33.2798 29.061 33.862 29.2153 34.3825 29.5274L35.1355 29.9797C36.0076 30.502 36.9863 30.7588 37.964 30.7547C37.9801 30.7547 37.9965 30.7579 38.0126 30.7579C38.961 30.7579 39.91 30.5107 40.761 30.0145L42.8328 29.0935C42.8772 29.0738 42.9088 29.0354 42.95 29.0102L43.1116 28.9383L41.3529 54.1807Z" fill="#E54545"/>
<path d="M6.33624 45.4073H13.7278C14.3105 45.4073 14.7838 44.9353 14.7838 44.3512C14.7838 43.7676 14.3105 43.2952 13.7278 43.2952H6.33624C5.75351 43.2952 5.28064 43.7676 5.28064 44.3512C5.28064 44.9353 5.75351 45.4073 6.33624 45.4073Z" fill="#E54545"/>
<path d="M6.33624 49.6312H15.8394C16.4226 49.6312 16.8955 49.1592 16.8955 48.5751C16.8955 47.991 16.4226 47.519 15.8394 47.519H6.33624C5.75351 47.519 5.28064 47.991 5.28064 48.5751C5.28064 49.1592 5.75351 49.6312 6.33624 49.6312Z" fill="#E54545"/>
<path d="M17.9511 51.7427H6.33624C5.75351 51.7427 5.28064 52.2146 5.28064 52.7987C5.28064 53.3824 5.75351 53.8543 6.33624 53.8543H17.9511C18.5338 53.8543 19.0071 53.3824 19.0071 52.7987C19.0071 52.2146 18.5338 51.7427 17.9511 51.7427Z" fill="#E54545"/>
<path d="M24.2865 51.7427H22.1748C21.5916 51.7427 21.1188 52.2146 21.1188 52.7987C21.1188 53.3824 21.5916 53.8543 22.1748 53.8543H24.2865C24.8692 53.8543 25.3426 53.3824 25.3426 52.7987C25.3426 52.2146 24.8697 51.7427 24.2865 51.7427Z" fill="#E54545"/>
</svg>
