<svg width="30" height="30" viewBox="0 0 30 30" fill="none" xmlns="http://www.w3.org/2000/svg">
<path d="M28.6015 4.74029L24.7241 0.866505C24.4506 0.591785 24.1255 0.373813 23.7675 0.225111C23.4095 0.0764088 23.0257 -9.29112e-05 22.638 8.46827e-08C21.848 8.46827e-08 21.1053 0.309466 20.5482 0.866505L16.376 5.03884C16.1013 5.31235 15.8833 5.63745 15.7346 5.99546C15.5859 6.35347 15.5094 6.73734 15.5095 7.125C15.5095 7.91505 15.8189 8.65777 16.376 9.21481L19.4269 12.2658C18.7127 13.8399 17.7198 15.2719 16.4961 16.4927C15.2755 17.7194 13.8436 18.716 12.2692 19.4345L9.21831 16.3835C8.9448 16.1088 8.6197 15.8908 8.2617 15.7421C7.90369 15.5934 7.51983 15.5169 7.13218 15.517C6.34214 15.517 5.59943 15.8265 5.0424 16.3835L0.866494 20.5522C0.591441 20.8262 0.373285 21.1519 0.224578 21.5106C0.0758711 21.8692 -0.000451154 22.2537 2.00617e-06 22.642C2.00617e-06 23.432 0.309464 24.1748 0.866494 24.7318L4.73658 28.6019C5.62492 29.4939 6.85184 30 8.11153 30C8.3773 30 8.63215 29.9782 8.88336 29.9345C13.7911 29.1262 18.6587 26.5158 22.587 22.591C26.5117 18.6699 29.1185 13.8058 29.9377 8.8835C30.1852 7.37985 29.6865 5.83252 28.6015 4.74029Z" fill="white"/>
</svg>
