<svg width="44" height="44" viewBox="0 0 44 44" fill="none" xmlns="http://www.w3.org/2000/svg">
<g clip-path="url(#clip0_2283_5401)">
<path d="M41.155 28.3983V3.84227C41.155 1.72364 39.4314 0 37.3127 0H9.05069C6.93206 0 5.20841 1.72364 5.20841 3.84227V5.20841H3.84227C1.72364 5.20841 0 6.93206 0 9.05069C0 11.1693 1.72364 12.893 3.84227 12.893H5.20841V18.016H3.84227C1.72364 18.016 0 19.7396 0 21.8583C0 23.9769 1.72364 25.7005 3.84227 25.7005H5.20841V30.8236H3.84227C1.72364 30.8236 0 32.5472 0 34.6658C0 36.7845 1.72364 38.5081 3.84227 38.5081H5.20841V39.7889C5.20841 40.8096 5.60092 41.7823 6.31362 42.5279C7.04639 43.2944 8.01848 43.7165 9.05069 43.7165H34.7512C39.6947 43.7165 43.7165 39.6564 43.7165 34.6658C43.7165 32.2287 42.7385 30.016 41.155 28.3983ZM3.84227 10.3314C3.13606 10.3314 2.56151 9.7569 2.56151 9.05069C2.56151 8.34448 3.13606 7.76993 3.84227 7.76993H6.48917C7.19538 7.76993 7.76993 8.34448 7.76993 9.05069C7.76993 9.7569 7.19538 10.3314 6.48917 10.3314H3.84227ZM3.84227 23.139C3.13606 23.139 2.56151 22.5645 2.56151 21.8583C2.56151 21.1521 3.13606 20.5775 3.84227 20.5775H6.48917C7.19538 20.5775 7.76993 21.1521 7.76993 21.8583C7.76993 22.5645 7.19538 23.139 6.48917 23.139H3.84227ZM6.48917 35.9466H3.84227C3.13606 35.9466 2.56151 35.372 2.56151 34.6658C2.56151 33.9596 3.13606 33.3851 3.84227 33.3851H6.48917C7.19538 33.3851 7.76993 33.9596 7.76993 34.6658C7.76993 35.372 7.19538 35.9466 6.48917 35.9466ZM9.05069 41.155C8.36847 41.155 7.76993 40.5166 7.76993 39.7889V38.2878C9.26065 37.7591 10.3314 36.3355 10.3314 34.6658C10.3314 32.9962 9.26065 31.5725 7.76993 31.0439V25.4802C9.26065 24.9515 10.3314 23.5279 10.3314 21.8583C10.3314 20.1886 9.26065 18.765 7.76993 18.2363V12.6727C9.26065 12.144 10.3314 10.7204 10.3314 9.05069C10.3314 7.38101 9.26065 5.9574 7.76993 5.4287V3.84227C7.76993 3.13606 8.34448 2.56151 9.05069 2.56151H37.3127C38.0189 2.56151 38.5935 3.13606 38.5935 3.84227V26.5668C37.4283 26.0118 36.1255 25.7005 34.7512 25.7005C29.8078 25.7005 25.7859 29.7224 25.7859 34.6658C25.7859 37.2086 26.8304 39.5093 28.5085 41.155H9.05069ZM34.7512 41.155C31.2202 41.155 28.3474 38.244 28.3474 34.6658C28.3474 31.1348 31.2202 28.262 34.7512 28.262C38.2823 28.262 41.155 31.1348 41.155 34.6658C41.155 38.244 38.2823 41.155 34.7512 41.155Z" fill="#FF5E14"/>
<path d="M34.7509 10.3316H27.0664C26.3591 10.3316 25.7856 10.905 25.7856 11.6123C25.7856 12.3196 26.3591 12.8931 27.0664 12.8931H34.7509C35.4583 12.8931 36.0317 12.3196 36.0317 11.6123C36.0317 10.905 35.4583 10.3316 34.7509 10.3316Z" fill="#FF5E14"/>
<path d="M34.7509 20.5776H27.0664C26.3591 20.5776 25.7856 21.1511 25.7856 21.8584C25.7856 22.5657 26.3591 23.1391 27.0664 23.1391H34.7509C35.4583 23.1391 36.0317 22.5657 36.0317 21.8584C36.0317 21.1511 35.4583 20.5776 34.7509 20.5776Z" fill="#FF5E14"/>
<path d="M37.312 33.3852H36.0312V32.1044C36.0312 31.3971 35.4578 30.8237 34.7505 30.8237C34.0432 30.8237 33.4697 31.3971 33.4697 32.1044V34.6659C33.4697 35.3733 34.0432 35.9467 34.7505 35.9467H37.312C38.0193 35.9467 38.5928 35.3733 38.5928 34.6659C38.5928 33.9586 38.0193 33.3852 37.312 33.3852Z" fill="#FF5E14"/>
<path d="M22.7627 8.14516C22.2626 7.64498 21.4517 7.64498 20.9516 8.14524L16.7341 12.3626L14.7181 10.3466C14.218 9.84643 13.4071 9.84643 12.9069 10.3466C12.4067 10.8468 12.4067 11.6577 12.9069 12.1579L15.8285 15.0795C16.0785 15.3296 16.4063 15.4546 16.7341 15.4546C17.0619 15.4546 17.3897 15.3296 17.6397 15.0794L22.7627 9.95641C23.2629 9.45623 23.2629 8.64534 22.7627 8.14516Z" fill="#FF5E14"/>
<path d="M22.7627 18.3912C22.2626 17.891 21.4517 17.891 20.9516 18.3913L16.7341 22.6087L14.7181 20.5927C14.218 20.0925 13.4071 20.0925 12.9069 20.5927C12.4067 21.0928 12.4067 21.9037 12.9069 22.4039L15.8285 25.3256C16.0785 25.5757 16.4063 25.7007 16.7341 25.7007C17.0619 25.7007 17.3897 25.5757 17.6397 25.3255L22.7627 20.2025C23.2629 19.7023 23.2629 18.8914 22.7627 18.3912Z" fill="#FF5E14"/>
<path d="M22.7627 28.6373C22.2626 28.1371 21.4517 28.1371 20.9516 28.6374L16.7341 32.8547L14.7181 30.8387C14.218 30.3385 13.4071 30.3385 12.9069 30.8387C12.4067 31.3389 12.4067 32.1498 12.9069 32.65L15.8285 35.5716C16.0785 35.8217 16.4063 35.9467 16.7341 35.9467C17.0619 35.9467 17.3897 35.8217 17.6397 35.5716L22.7627 30.4485C23.2629 29.9483 23.2629 29.1375 22.7627 28.6373Z" fill="#FF5E14"/>
</g>
<defs>
<clipPath id="clip0_2283_5401">
<rect width="43.7165" height="43.7165" fill="white"/>
</clipPath>
</defs>
</svg>
