<svg width="51" height="51" viewBox="0 0 51 51" fill="none" xmlns="http://www.w3.org/2000/svg">
<g clip-path="url(#clip0)">
<path d="M47.4959 32.7738V4.43427C47.4959 1.98921 45.5067 0 43.0617 0H10.4452C8.00011 0 6.01089 1.98921 6.01089 4.43427V6.01089H4.43427C1.98921 6.01089 0 8.00011 0 10.4452C0 12.8902 1.98921 14.8794 4.43427 14.8794H6.01089V20.7918H4.43427C1.98921 20.7918 0 22.781 0 25.226C0 27.6711 1.98921 29.6603 4.43427 29.6603H6.01089V35.5727H4.43427C1.98921 35.5727 0 37.5619 0 40.0069C0 42.452 1.98921 44.4412 4.43427 44.4412H6.01089V45.9193C6.01089 47.0973 6.46388 48.2199 7.28639 49.0803C8.13205 49.9649 9.25392 50.4521 10.4452 50.4521H40.1055C45.8106 50.4521 50.4521 45.7665 50.4521 40.0069C50.4521 37.1943 49.3234 34.6407 47.4959 32.7738ZM4.43427 11.9232C3.61925 11.9232 2.95618 11.2602 2.95618 10.4452C2.95618 9.63014 3.61925 8.96707 4.43427 8.96707H7.48898C8.304 8.96707 8.96707 9.63014 8.96707 10.4452C8.96707 11.2602 8.304 11.9232 7.48898 11.9232H4.43427ZM4.43427 26.7041C3.61925 26.7041 2.95618 26.0411 2.95618 25.226C2.95618 24.411 3.61925 23.748 4.43427 23.748H7.48898C8.304 23.748 8.96707 24.411 8.96707 25.226C8.96707 26.0411 8.304 26.7041 7.48898 26.7041H4.43427ZM7.48898 41.485H4.43427C3.61925 41.485 2.95618 40.822 2.95618 40.0069C2.95618 39.1919 3.61925 38.5288 4.43427 38.5288H7.48898C8.304 38.5288 8.96707 39.1919 8.96707 40.0069C8.96707 40.822 8.304 41.485 7.48898 41.485ZM10.4452 47.4959C9.65783 47.4959 8.96707 46.7591 8.96707 45.9193V44.187C10.6875 43.5768 11.9232 41.9339 11.9232 40.0069C11.9232 38.08 10.6875 36.4371 8.96707 35.8269V29.4061C10.6875 28.7959 11.9232 27.153 11.9232 25.226C11.9232 23.2991 10.6875 21.6562 8.96707 21.046V14.6252C10.6875 14.015 11.9232 12.3721 11.9232 10.4452C11.9232 8.51823 10.6875 6.87528 8.96707 6.26513V4.43427C8.96707 3.61925 9.63014 2.95618 10.4452 2.95618H43.0617C43.8767 2.95618 44.5397 3.61925 44.5397 4.43427V30.66C43.1951 30.0195 41.6915 29.6603 40.1055 29.6603C34.4003 29.6603 29.7589 34.3018 29.7589 40.0069C29.7589 42.9414 30.9643 45.5967 32.9009 47.4959H10.4452ZM40.1055 47.4959C36.0304 47.4959 32.715 44.1364 32.715 40.0069C32.715 35.9318 36.0304 32.6165 40.1055 32.6165C44.1806 32.6165 47.4959 35.9318 47.4959 40.0069C47.4959 44.1364 44.1806 47.4959 40.1055 47.4959Z" fill="#0491B2"/>
<path d="M40.1054 11.9233H31.2369C30.4206 11.9233 29.7588 12.5851 29.7588 13.4014C29.7588 14.2177 30.4206 14.8795 31.2369 14.8795H40.1054C40.9217 14.8795 41.5835 14.2177 41.5835 13.4014C41.5835 12.5851 40.9217 11.9233 40.1054 11.9233Z" fill="#0491B2"/>
<path d="M40.1054 23.748H31.2369C30.4206 23.748 29.7588 24.4098 29.7588 25.2261C29.7588 26.0424 30.4206 26.7042 31.2369 26.7042H40.1054C40.9217 26.7042 41.5835 26.0424 41.5835 25.2261C41.5835 24.4098 40.9217 23.748 40.1054 23.748Z" fill="#0491B2"/>
<path d="M43.0616 38.5289H41.5835V37.0508C41.5835 36.2345 40.9217 35.5728 40.1054 35.5728C39.2891 35.5728 38.6273 36.2345 38.6273 37.0508V40.007C38.6273 40.8233 39.2891 41.4851 40.1054 41.4851H43.0616C43.8779 41.4851 44.5397 40.8233 44.5397 40.007C44.5397 39.1907 43.8779 38.5289 43.0616 38.5289Z" fill="#0491B2"/>
<path d="M26.2705 9.40021C25.6933 8.82296 24.7574 8.82296 24.1802 9.4003L19.313 14.2675L16.9864 11.9408C16.4092 11.3636 15.4733 11.3636 14.8961 11.9408C14.3188 12.5181 14.3188 13.4539 14.8961 14.0312L18.2679 17.403C18.5564 17.6916 18.9347 17.8359 19.313 17.8359C19.6913 17.8359 20.0696 17.6916 20.3581 17.4029L26.2705 11.4905C26.8477 10.9133 26.8477 9.97745 26.2705 9.40021Z" fill="#0491B2"/>
<path d="M26.2705 21.2249C25.6933 20.6477 24.7574 20.6477 24.1802 21.225L19.313 26.0922L16.9864 23.7655C16.4092 23.1883 15.4733 23.1883 14.8961 23.7655C14.3188 24.3428 14.3188 25.2786 14.8961 25.8559L18.2679 29.2277C18.5564 29.5163 18.9347 29.6606 19.313 29.6606C19.6913 29.6606 20.0696 29.5163 20.3581 29.2276L26.2705 23.3152C26.8477 22.738 26.8477 21.8022 26.2705 21.2249Z" fill="#0491B2"/>
<path d="M26.2705 33.0496C25.6933 32.4724 24.7574 32.4724 24.1802 33.0497L19.313 37.9169L16.9864 35.5903C16.4092 35.013 15.4733 35.013 14.8961 35.5903C14.3188 36.1675 14.3188 37.1033 14.8961 37.6806L18.2679 41.0524C18.5564 41.341 18.9347 41.4853 19.313 41.4853C19.6913 41.4853 20.0696 41.341 20.3581 41.0523L26.2705 35.1399C26.8477 34.5627 26.8477 33.6269 26.2705 33.0496Z" fill="#0491B2"/>
</g>
<defs>
<clipPath id="clip0">
<rect width="50.4521" height="50.4521" fill="white"/>
</clipPath>
</defs>
</svg>
