<svg width="56" height="56" viewBox="0 0 56 56" fill="none" xmlns="http://www.w3.org/2000/svg">
<path d="M54.4513 33.2237H49.0644L44.0741 31.5626L42.4536 27.5092V24.4561C42.4473 22.3449 40.8543 20.5761 38.7557 20.3494C38.7557 20.2228 38.762 20.0962 38.762 19.97V6.45947C38.762 6.05164 38.4947 5.69248 38.104 5.57532L19.646 0.0378909C19.4729 -0.0139324 19.2891 -0.0139324 19.116 0.0378909L0.65793 5.57532C0.267678 5.69248 0 6.05164 0 6.45947V19.97C0 20.3981 0.0288408 20.8208 0.0441623 21.2462C0.0675956 21.8694 0.102295 22.4886 0.157723 23.1042C0.167186 23.2092 0.179804 23.3079 0.190169 23.4115C1.32352 35.1294 8.42285 45.4337 18.9687 50.6665C19.2282 50.7963 19.5338 50.7963 19.7938 50.6665C21.1741 49.9734 22.5071 49.1884 23.7824 48.3169C24.0721 48.7161 24.438 49.0537 24.8594 49.3101C23.9378 50.4092 23.7364 51.9422 24.3425 53.2423C24.9486 54.542 26.2527 55.3729 27.6871 55.3734H43.3765C43.559 55.3734 43.737 55.3193 43.8889 55.2184L49.1906 51.6818H54.4513C54.961 51.6818 55.3743 51.2685 55.3743 50.7589V34.1466C55.3743 33.6369 54.961 33.2237 54.4513 33.2237ZM34.4769 28.6894L35.553 31.3779H30.1909C32.1507 27.8625 33.1917 23.909 33.2182 19.8839L36.9162 18.7749V19.97C36.9162 20.1674 36.9099 20.3639 36.9063 20.5617C35.2569 21.1475 34.1529 22.7058 34.1475 24.4561V26.9747C34.147 27.5623 34.2588 28.1441 34.4769 28.6894ZM21.2268 35.0695C21.2277 36.0122 21.5914 36.9189 22.2421 37.6012C21.8996 37.8504 21.5639 38.1086 21.2101 38.3393L19.381 39.5096L17.5555 38.3366C13.4632 35.7135 10.3516 31.8118 8.70405 27.2388L31.3522 20.4441C31.226 24.3164 30.0832 28.0873 28.0386 31.3779H24.9184C22.8797 31.3779 21.2268 33.0308 21.2268 35.0695ZM2.34692 25.598C2.33971 25.5516 2.33114 25.5056 2.32393 25.461L5.99167 24.3637C6.10027 24.9175 6.23231 25.4714 6.38012 26.0121L2.65966 27.1288C2.53799 26.5993 2.43749 26.0942 2.34692 25.598ZM1.92152 21.8906L5.57167 20.7951C5.59736 21.3737 5.63972 21.9488 5.70641 22.5188L2.06437 23.6116C2.05535 23.5287 2.04814 23.4467 2.03868 23.3633C1.99181 22.8874 1.949 22.4043 1.92152 21.8906ZM31.3787 11.1258L7.38323 18.3243V11.7247L19.4125 7.42879L31.3787 10.8469V11.1258ZM31.3787 13.0527V14.8174L7.50896 21.978C7.45083 21.4048 7.41478 20.8276 7.39991 20.2467L31.3787 13.0527ZM36.9162 15.0833V16.8475L33.2246 17.9552V16.1905L36.9162 15.0833ZM36.9162 13.1559L33.2246 14.2636V12.4989L36.9162 11.3917V13.1559ZM7.76718 23.8275L22.7846 19.3229L31.3787 16.7443V18.509L8.14751 25.4786C8.00151 24.9342 7.87127 24.3849 7.76718 23.8275ZM1.84581 7.14624L19.381 1.8855L36.9162 7.14624V9.46431L33.2246 10.572V10.1511C33.2246 9.7392 32.9515 9.37734 32.5554 9.26423L19.6347 5.57261C19.4499 5.51899 19.2521 5.52484 19.0709 5.59019L6.15029 10.2047C5.78257 10.3358 5.53743 10.6837 5.53743 11.074V18.8781L1.84581 19.9858V7.14624ZM19.381 48.8004C11.4318 44.7172 5.53202 37.5192 3.08821 28.9228L6.93395 27.7692C8.70856 32.7649 12.0937 37.0284 16.5568 39.8891L18.8817 41.3834C19.1859 41.5789 19.5761 41.5789 19.8803 41.3834L22.2051 39.8891L22.229 39.8733C21.9041 41.4045 22.5922 42.9723 23.9392 43.7699C23.379 44.4342 23.0722 45.2755 23.0726 46.1443C23.0744 46.2728 23.083 46.4008 23.0983 46.5283C21.9113 47.3678 20.6698 48.1271 19.381 48.8004ZM43.0998 53.5276H27.6871C26.6678 53.5276 25.8413 52.7011 25.8413 51.6818C25.8395 50.7237 26.5781 49.9265 27.5339 49.8553C28.0301 49.804 28.4 49.3754 28.3784 48.877C28.359 48.3813 27.9516 47.9897 27.4555 47.9902H26.7642C25.7449 47.9902 24.9184 47.1637 24.9184 46.1443C24.9184 45.125 25.7449 44.2985 26.7642 44.2985C27.2739 44.2985 27.6871 43.8853 27.6871 43.3756C27.6871 42.866 27.2739 42.4527 26.7642 42.4527H25.8413C24.822 42.4527 23.9955 41.6263 23.9955 40.6069C23.9955 39.5876 24.822 38.7611 25.8413 38.7611C26.351 38.7611 26.7642 38.3479 26.7642 37.8382C26.7642 37.3285 26.351 36.9153 25.8413 36.9153H24.9184C23.8991 36.9153 23.0726 36.0888 23.0726 35.0695C23.0726 34.0502 23.8991 33.2237 24.9184 33.2237H36.9162C37.2226 33.2241 37.5092 33.0723 37.6809 32.8181C37.853 32.5644 37.8877 32.2422 37.7737 31.9574L36.1915 28.004C36.06 27.6768 35.9928 27.3276 35.9933 26.9747V24.4561C35.9933 23.1817 37.0261 22.1488 38.3005 22.1488C39.5749 22.1488 40.6078 23.1817 40.6078 24.4561V27.6863C40.6078 27.8039 40.6303 27.9201 40.6731 28.0296L42.5189 32.6442C42.6208 32.8956 42.8276 33.0903 43.0849 33.1768L47.991 34.8122V50.265L43.0998 53.5276ZM53.5284 49.836H49.8368V35.0695H53.5284V49.836Z" fill="#0491B2"/>
</svg>
