<svg width="48" height="38" viewBox="0 0 48 38" fill="none" xmlns="http://www.w3.org/2000/svg">
<path d="M3.42859 17.1431H24V20.5716H3.42859V17.1431Z" fill="#F7B614"/>
<path d="M0 8.57129H17.1428V11.9999H0V8.57129Z" fill="#F7B614"/>
<path d="M47.8611 18.1817L42.7182 6.18171C42.5863 5.87327 42.3666 5.6104 42.0865 5.42571C41.8065 5.24103 41.4783 5.14267 41.1428 5.14285H36V1.71428C36 1.25963 35.8194 0.823593 35.4979 0.502103C35.1764 0.180612 34.7403 0 34.2857 0H6.85713V3.42857H32.5714V24.9531C31.7903 25.4067 31.1066 26.0105 30.56 26.7295C30.0133 27.4486 29.6144 28.2688 29.3863 29.1428H18.6137C18.1964 27.5269 17.2042 26.1185 15.8228 25.1818C14.4415 24.2451 12.7659 23.8443 11.1103 24.0546C9.45459 24.2649 7.93244 25.0719 6.82915 26.3242C5.72585 27.5765 5.11716 29.1881 5.11716 30.8571C5.11716 32.5261 5.72585 34.1378 6.82915 35.3901C7.93244 36.6424 9.45459 37.4493 11.1103 37.6596C12.7659 37.8699 14.4415 37.4691 15.8228 36.5324C17.2042 35.5957 18.1964 34.1874 18.6137 32.5714H29.3863C29.7592 34.0427 30.612 35.3476 31.8099 36.2797C33.0077 37.2118 34.4822 37.7179 36 37.7179C37.5178 37.7179 38.9922 37.2118 40.1901 36.2797C41.3879 35.3476 42.2408 34.0427 42.6137 32.5714H46.2857C46.7403 32.5714 47.1764 32.3908 47.4979 32.0693C47.8194 31.7478 48 31.3118 48 30.8571V18.8571C48 18.6249 47.9528 18.3951 47.8611 18.1817ZM12 34.2857C11.3219 34.2857 10.659 34.0846 10.0952 33.7079C9.53134 33.3311 9.0919 32.7957 8.8324 32.1692C8.5729 31.5427 8.505 30.8533 8.63729 30.1882C8.76958 29.5232 9.09612 28.9123 9.57562 28.4328C10.0551 27.9533 10.666 27.6267 11.3311 27.4944C11.9962 27.3621 12.6855 27.43 13.312 27.6895C13.9385 27.949 14.474 28.3885 14.8507 28.9523C15.2275 29.5161 15.4286 30.179 15.4286 30.8571C15.4276 31.7662 15.0661 32.6377 14.4233 33.2805C13.7806 33.9233 12.909 34.2848 12 34.2857ZM36 8.57142H40.0114L43.6868 17.1428H36V8.57142ZM36 34.2857C35.3219 34.2857 34.659 34.0846 34.0952 33.7079C33.5313 33.3311 33.0919 32.7957 32.8324 32.1692C32.5729 31.5427 32.505 30.8533 32.6373 30.1882C32.7696 29.5232 33.0961 28.9123 33.5756 28.4328C34.0551 27.9533 34.666 27.6267 35.3311 27.4944C35.9962 27.3621 36.6855 27.43 37.312 27.6895C37.9385 27.949 38.474 28.3885 38.8507 28.9523C39.2275 29.5161 39.4285 30.179 39.4285 30.8571C39.4276 31.7662 39.0661 32.6377 38.4233 33.2805C37.7805 33.9233 36.909 34.2848 36 34.2857ZM44.5714 29.1428H42.6137C42.2361 27.6744 41.3818 26.3729 40.1849 25.4421C38.988 24.5114 37.5161 24.0042 36 24V20.5714H44.5714V29.1428Z" fill="#F7B614"/>
</svg>
